<?xml version="1.0" encoding="utf-8"?>
<!-- Generator: Adobe Illustrator 19.1.1, SVG Export Plug-In . SVG Version: 6.00 Build 0)  -->
<svg version="1.1" id="_x31_0" xmlns="http://www.w3.org/2000/svg" xmlns:xlink="http://www.w3.org/1999/xlink" x="0px" y="0px"
	 viewBox="0 0 512 512" style="enable-background:new 0 0 512 512;" xml:space="preserve">
<style type="text/css">
	.st0{fill:#374149;}
</style>
<g>
	<path class="st0" d="M445.349,173.03h-0.137h-0.297c-8.193,0-16.042,1.539-23.286,4.394c-9.298-5.257-19.955-8.201-31.37-8.279
		h-0.141h-0.308c-9.873,0-19.218,2.152-27.641,6.108c-9.084-4.917-19.386-7.662-30.374-7.736h-0.137h-0.301
		c-2.726,0-5.409,0.168-8.045,0.484l-15.87-96.993l-0.051-0.305l-0.054-0.309C299.783,28.297,271.596,0.004,237.195,0h-0.008
		c-2.464,0-4.948,0.156-7.385,0.465C198.55,4.401,166.785,31.12,170.87,80.462l0.035,0.43l0.046,0.426l10.318,98.996l6.104,59.538
		l-12.204-8.33l-0.949-0.648l-0.984-0.594c-16.335-9.83-30.964-14.614-44.738-14.614c-21.67,0-40.422,12.219-48.947,31.91
		c-16.046,37.044,8.427,91.966,32.26,117.366c20.405,21.752,46.69,36.51,78.35,44.035c7.354,19.717,18.445,37.138,32.636,51.786
		c15.426,16.007,34.557,28.512,56.477,37.185c22.306,8.893,47.502,13.856,74.874,14.047l1.469,0.004
		c93.845,0,154.918-63.354,155.598-161.405l0.714-102.09c0.184-26.527-9.919-43.613-18.428-53.274
		C481.191,181.247,463.637,173.155,445.349,173.03z M470.842,350.318c-0.527,76.018-43.605,121.306-115.226,121.306
		c-0.39,0-0.793,0-1.187-0.003c-70.77-0.492-121.698-38.614-132.151-97.907c-0.246-1.402-47.261-0.402-81.021-36.388
		c-22.373-23.853-39.782-81.286-12.762-81.286c5.799,0.004,13.641,2.647,23.915,8.834l51.041,34.83l33.062,22.689l-0.012-0.137
		l0.172,0.121L211.109,77.131c-1.91-23.083,9.689-34.838,23.735-36.607c0.782-0.102,1.558-0.152,2.343-0.152
		c12.875,0.004,26.106,13.172,30.41,37.154l25.818,157.816l10.813,0.074c2.777-18.097,15-27.524,27.13-27.524
		c0.054,0,0.11,0,0.164,0c12.106,0.082,24.294,9.689,26.91,27.902l4.57,0.031c2.846-17.335,14.839-26.305,26.809-26.305
		c0.054,0,0.113,0,0.168,0c11.418,0.074,23.618,8.541,26.161,26.672l4.108,0.031c2.91-15.058,13.832-22.822,24.669-22.822
		c0.051,0,0.106,0,0.157,0c12.863,0.09,26.649,10.993,26.481,34.822L470.842,350.318z"/>
	<path class="st0" d="M49.415,145.999l50.002-72.453l0.042-0.062l11.634,8.232l5.89,4.268l0.007-0.094l0.153,0.106l6.201-67.099
		c0.309-3.342-3.124-5.775-6.182-4.37L76.528,33.233L56.05,42.57l0.074,0.054l-0.164,0.078l17.71,12.539l-49.76,72.102l-0.457,0.66
		l-11.848-8.213l-5.807-4.124l-0.008,0.09l-0.152-0.106l-5.553,67.15c-0.278,3.35,3.178,5.748,6.221,4.311l40.34-19.046
		l20.498-9.587l-0.078-0.054l0.167-0.078L49.415,145.999z"/>
</g>
</svg>
