<?xml version="1.0" encoding="utf-8"?>
<!-- Generator: Adobe Illustrator 19.1.1, SVG Export Plug-In . SVG Version: 6.00 Build 0)  -->
<svg version="1.1" id="_x31_0" xmlns="http://www.w3.org/2000/svg" xmlns:xlink="http://www.w3.org/1999/xlink" x="0px" y="0px"
	 viewBox="0 0 512 512" style="enable-background:new 0 0 512 512;" xml:space="preserve">
<style type="text/css">
	.st0{fill:#374149;}
</style>
<g>
	<path class="st0" d="M168.157,0c-33.992,0-69.152,28.785-69.152,76.957v129.29l-10.496,5.73
		c-26.094,14.226-42.305,41.531-42.305,71.262l0.007,44.562c-1.14,30.789,16.45,59.328,44.13,72.293
		C111.387,468.278,176.692,512,258.387,512c75.348,0,155.859-42.676,155.859-162.453V247.129c0-48.5-34.336-74.668-66.64-74.668
		c-8.524,0-16.649,1.586-24.25,4.726c-18.289-10.195-40.746-10.726-59.371-1.621c-8.894-4.77-18.805-7.473-28.648-7.762V76.957
		C235.337,26.434,201.543,0,168.157,0z M253.638,243.035h18.75c0-17.566,9.973-26.594,19.855-26.594
		c9.711,0,19.336,8.71,19.336,26.594h18.254c0-15.149,8.777-23.094,17.774-23.094c9.461,0,19.16,8.777,19.16,27.187
		c0,26.153,0,66.153,0,102.418c0,87.277-54.84,114.972-108.379,114.972c-66.05,0-119.594-35.64-126.953-98.926l-19.5-7.863
		c-11.598-4.68-18.938-16.222-18.25-28.714v-45.778c0-12.336,6.738-23.676,17.562-29.582l10.93-5.961v50.656l15.391,10.645
		l8.758,6.168v-0.114l0.16,0.114c0,0,0-205.91,0-238.207c0-18.961,11.012-29.469,21.672-29.469c10.004,0,19.699,9.25,19.699,29.469
		c0,31.234,0,130.938,0,164.906v1.012c0,0.046,0,0.113,0,0.16h25.598c0-18.504,10.058-27.778,20.114-27.778
		C243.607,215.258,253.638,224.504,253.638,243.035z"/>
	<polygon class="st0" points="420.275,41.707 397.856,28.379 397.856,28.473 397.696,28.379 397.47,51.942 274.653,51.942 
		274.653,83.586 274.653,83.782 274.653,83.942 395.841,83.942 397.161,83.942 396.935,107.504 443.016,81.488 465.755,68.742 
		465.676,68.695 465.841,68.606 	"/>
</g>
</svg>
